{"title":"Hollywood.Scandals.S02E02.Arnold.Schwarzenegger.720p.HDTV.x264-F","uid":10587303,"size":1031552427,"categoryP":"video","categoryS":"hd___tv_shows","magnet":"?xt=urn:btih:e8a9c06f8018b3314d507cbee1a6f989af22a951&amp;dn=Hollywood.Scandals.S02E02.Arnold.Schwarzenegger.720p.HDTV.x264-F&amp;tr=udp%3A%2F%2Ftracker.openbittorrent.com%3A80&amp;tr=udp%3A%2F%2Fopen.demonii.com%3A1337&amp;tr=udp%3A%2F%2Ftracker.coppersurfer.tk%3A6969&amp;tr=udp%3A%2F%2Fexodus.desync.com%3A6969","seeders":1,"leechers":1,"uploader":"FiNCH","files":-1,"time":1405760505,"description":"***************************************************************\nHollywood.Scandals.S02E02.Arnold.Schwarzenegger.720p.HDTV.x264-FiNCH\n***************************************************************\n\n-------------------------------------------------------------------------------\nGeneral Information\n-------------------------------------------------------------------------------\n\nFormat : Matroska\nFormat version : Version 4 / Version 2\nFile size : 965 MiB\nDuration : 44mn 22s\nOverall bit rate : 3 041 Kbps\nEncoded date : UTC 2014-07-19 06:56:03\nWriting application : mkvmerge v7.0.0 ('Where We Going') 64bit built on Jun 9 2014 15:16:27\nWriting library : libebml v1.3.0 + libmatroska v1.4.1\n\nVideo\nID : 2\nFormat : AVC\nFormat/Info : Advanced Video Codec\nFormat profile : &lt;a class=&quot;__cf_email__&quot; href=&quot;/cdn-cgi/l/email-protection&quot; data-cfemail=&quot;c28aaba5aa828ef6ecf3&quot;&gt;[email&amp;#160;protected]&lt;/a&gt;&lt;script cf-hash='f9e31' type=&quot;text/javascript&quot;&gt;\n/* &lt;![CDATA[ */!function(){try{var t=&quot;currentScript&quot;in document?document.currentScript:function(){for(var t=document.getElementsByTagName(&quot;script&quot;),e=t.length;e--;)if(t[e].getAttribute(&quot;cf-hash&quot;))return t[e]}();if(t&amp;&amp;t.previousSibling){var e,r,n,i,c=t.previousSibling,a=c.getAttribute(&quot;data-cfemail&quot;);if(a){for(e=&quot;&quot;,r=parseInt(a.substr(0,2),16),n=2;a.length-n;n+=2)i=parseInt(a.substr(n,2),16)^r,e+=String.fromCharCode(i);e=document.createTextNode(e),c.parentNode.replaceChild(e,c)}}}catch(u){}}();/* ]]&gt; */&lt;/script&gt;\nFormat settings, CABAC : Yes\nFormat settings, ReFrames : 5 frames\nCodec ID : V_MPEG4/ISO/AVC\nDuration : 44mn 22s\nBit rate : 2 596 Kbps\nWidth : 1 280 pixels\nHeight : 720 pixels\nDisplay aspect ratio : 16:9\nFrame rate mode : Constant\nFrame rate : 29.970 fps\nColor space : YUV\nChroma subsampling : 4:2:0\nBit depth : 8 bits\nScan type : Progressive\nBits/(Pixel*Frame) : 0.094\nStream size : 824 MiB (85%)\nWriting library : x264 core 138 r2358 9e941d1\nEncoding settings : cabac=1 / ref=5 / deblock=1:1:0 / analyse=0x3:0x113 / me=umh / subme=8 / psy=1 / psy_rd=1.00:0.00 / mixed_ref=1 / me_range=16 / chroma_me=1 / trellis=1 / 8x8dct=1 / cqm=0 / deadzone=21,11 / fast_pskip=1 / chroma_qp_offset=-2 / threads=12 / lookahead_threads=2 / sliced_threads=0 / nr=0 / decimate=1 / interlaced=0 / bluray_compat=0 / constrained_intra=0 / bframes=3 / b_pyramid=2 / b_adapt=2 / b_bias=0 / direct=1 / weightb=1 / open_gop=0 / weightp=2 / keyint=300 / keyint_min=27 / scenecut=40 / intra_refresh=0 / rc_lookahead=50 / rc=crf / mbtree=1 / crf=18.0 / qcomp=0.60 / qpmin=0 / qpmax=69 / qpstep=4 / vbv_maxrate=3200 / vbv_bufsize=2600 / crf_max=0.0 / nal_hrd=none / ip_ratio=1.40 / aq=1:1.00\nLanguage : English\nDefault : Yes\nForced : No\n\nAudio\nID : 1\nFormat : AC-3\nFormat/Info : Audio Coding 3\nMode extension : CM (complete main)\nFormat settings, Endianness : Big\nCodec ID : A_AC3\nDuration : 44mn 22s\nBit rate mode : Constant\nBit rate : 384 Kbps\nChannel(s) : 2 channels\nChannel positions : Front: L R\nSampling rate : 48.0 KHz\nBit depth : 16 bits\nCompression mode : Lossy\nStream size : 122 MiB (13%)\nLanguage : English\nDefault : Yes\nForced : No\n\n-------------------------------------------------------------------------------\n-------------------------------------------------------------------------------\n\nSCREENS\n &lt;a href=&quot;\nhttp://postimg.org/image/oxeqgj1ud/&quot; rel=&quot;nofollow&quot; target=&quot;_NEW&quot;&gt;\nhttp://postimg.org/image/oxeqgj1ud/&lt;/a&gt; &lt;a href=&quot;\nhttp://postimg.org/image/pqrc957v9/&quot; rel=&quot;nofollow&quot; target=&quot;_NEW&quot;&gt;\nhttp://postimg.org/image/pqrc957v9/&lt;/a&gt; &lt;a href=&quot;\nhttp://postimg.org/image/kqtw1728l/&quot; rel=&quot;nofollow&quot; target=&quot;_NEW&quot;&gt;\nhttp://postimg.org/image/kqtw1728l/&lt;/a&gt; &lt;a href=&quot;\nhttp://postimg.org/image/i8870igid/&quot; rel=&quot;nofollow&quot; target=&quot;_NEW&quot;&gt;\nhttp://postimg.org/image/i8870igid/&lt;/a&gt; &lt;a href=&quot;\nhttp://postimg.org/image/ml6qixp91/&quot; rel=&quot;nofollow&quot; target=&quot;_NEW&quot;&gt;\nhttp://postimg.org/image/ml6qixp91/&lt;/a&gt;","torrent":{"xt":"urn:btih:e8a9c06f8018b3314d507cbee1a6f989af22a951","amp;dn":"Hollywood.Scandals.S02E02.Arnold.Schwarzenegger.720p.HDTV.x264-F","amp;tr":["udp%3A%2F%2Ftracker.openbittorrent.com%3A80","udp%3A%2F%2Fopen.demonii.com%3A1337","udp%3A%2F%2Ftracker.coppersurfer.tk%3A6969","udp%3A%2F%2Fexodus.desync.com%3A6969"],"infoHash":"e8a9c06f8018b3314d507cbee1a6f989af22a951","infoHashBuffer":{"type":"Buffer","data":[232,169,192,111,128,24,179,49,77,80,124,190,225,166,249,137,175,34,169,81]},"announce":[],"urlList":[]}}